<svg width="160" height="40" viewBox="0 0 160 40" fill="none" xmlns="http://www.w3.org/2000/svg">
<g id="social_media">
<path id="Vector" d="M40 20.1217C40 9.00609 31.0484 0 20 0C8.95161 0 0 9.00609 0 20.1217C0 30.1647 7.31371 38.4893 16.875 40V25.9383H11.7944V20.1217H16.875V15.6884C16.875 10.6458 19.8589 7.86045 24.429 7.86045C26.6177 7.86045 28.9065 8.25314 28.9065 8.25314V13.2024H26.3839C23.9 13.2024 23.125 14.7538 23.125 16.3448V20.1217H28.6718L27.7847 25.9383H23.125V40C32.6863 38.4893 40 30.1647 40 20.1217Z" fill="#BF5454"/>
<path id="Vector_2" d="M80.0045 9.7445C74.3291 9.7445 69.7513 14.3233 69.7513 20C69.7513 25.6767 74.3291 30.2555 80.0045 30.2555C85.6799 30.2555 90.2577 25.6767 90.2577 20C90.2577 14.3233 85.6799 9.7445 80.0045 9.7445ZM80.0045 26.6674C76.3369 26.6674 73.3385 23.6773 73.3385 20C73.3385 16.3227 76.3279 13.3326 80.0045 13.3326C83.681 13.3326 86.6704 16.3227 86.6704 20C86.6704 23.6773 83.6721 26.6674 80.0045 26.6674ZM93.0686 9.325C93.0686 10.6549 91.9978 11.7171 90.6771 11.7171C89.3475 11.7171 88.2856 10.646 88.2856 9.325C88.2856 8.00402 89.3564 6.93295 90.6771 6.93295C91.9978 6.93295 93.0686 8.00402 93.0686 9.325ZM99.8595 11.7528C99.7078 8.54848 98.976 5.71014 96.6291 3.37164C94.2911 1.03314 91.4534 0.301238 88.2499 0.140578C84.9481 -0.0468593 75.0519 -0.0468593 71.7501 0.140578C68.5555 0.292313 65.7178 1.02421 63.3709 3.36271C61.024 5.70122 60.3012 8.53955 60.1405 11.7438C59.9532 15.0463 59.9532 24.9448 60.1405 28.2472C60.2922 31.4515 61.024 34.2899 63.3709 36.6284C65.7178 38.9669 68.5466 39.6988 71.7501 39.8594C75.0519 40.0469 84.9481 40.0469 88.2499 39.8594C91.4534 39.7077 94.2911 38.9758 96.6291 36.6284C98.9671 34.2899 99.6988 31.4515 99.8595 28.2472C100.047 24.9448 100.047 15.0552 99.8595 11.7528ZM95.594 31.7907C94.8979 33.5401 93.5505 34.8879 91.7925 35.593C89.1601 36.6373 82.9136 36.3963 80.0045 36.3963C77.0954 36.3963 70.8399 36.6284 68.2164 35.593C66.4674 34.8968 65.1199 33.549 64.4149 31.7907C63.3709 29.1576 63.6118 22.9097 63.6118 20C63.6118 17.0903 63.3798 10.8334 64.4149 8.2093C65.111 6.45989 66.4584 5.11213 68.2164 4.40701C70.8489 3.36271 77.0954 3.6037 80.0045 3.6037C82.9136 3.6037 89.169 3.37164 91.7925 4.40701C93.5416 5.1032 94.889 6.45096 95.594 8.2093C96.638 10.8424 96.3971 17.0903 96.3971 20C96.3971 22.9097 96.638 29.1666 95.594 31.7907Z" fill="#BF5454"/>
<path id="Vector_3" d="M159.164 6.25865C158.704 3.7951 157.349 1.8549 155.628 1.19646C152.508 0 140 0 140 0C140 0 127.492 0 124.372 1.19646C122.651 1.855 121.296 3.7951 120.836 6.25865C120 10.724 120 20.0404 120 20.0404C120 20.0404 120 29.3569 120.836 33.8222C121.296 36.2857 122.651 38.1451 124.372 38.8035C127.492 40 140 40 140 40C140 40 152.508 40 155.628 38.8035C157.349 38.1451 158.704 36.2857 159.164 33.8222C160 29.3569 160 20.0404 160 20.0404C160 20.0404 160 10.724 159.164 6.25865ZM135.909 28.4991V11.5818L146.364 20.0406L135.909 28.4991Z" fill="#BF5454"/>
</g>
</svg>
